<mxfile host="app.diagrams.net" modified="2023-10-19T05:36:46.362Z" agent="Mozilla/5.0 (Windows NT 10.0; Win64; x64) AppleWebKit/537.36 (KHTML, like Gecko) Chrome/116.0.0.0 Safari/537.36" version="22.0.4" etag="_jvWHgcOskzoRieHHQXS" type="device">
  <diagram id="-b_M7q916Xk4Pro6Xm15" name="第 1 页">
    <mxGraphModel dx="1434" dy="758" grid="1" gridSize="10" guides="1" tooltips="1" connect="1" arrows="1" fold="1" page="1" pageScale="1" pageWidth="850" pageHeight="1100" math="0" shadow="0">
      <root>
        <mxCell id="0" />
        <mxCell id="1" parent="0" />
        <mxCell id="TeEcFhffYw2u4824Z0s_-1" value="&lt;font style=&quot;font-size: 18px;&quot;&gt;製造商&lt;/font&gt;" style="rounded=0;whiteSpace=wrap;html=1;" vertex="1" parent="1">
          <mxGeometry x="140" y="310" width="120" height="60" as="geometry" />
        </mxCell>
        <mxCell id="TeEcFhffYw2u4824Z0s_-2" value="&lt;font style=&quot;font-size: 18px;&quot;&gt;產品&lt;/font&gt;" style="rounded=0;whiteSpace=wrap;html=1;" vertex="1" parent="1">
          <mxGeometry x="610" y="310" width="120" height="60" as="geometry" />
        </mxCell>
        <mxCell id="TeEcFhffYw2u4824Z0s_-3" value="&lt;font style=&quot;font-size: 18px;&quot;&gt;生產&lt;/font&gt;" style="rhombus;whiteSpace=wrap;html=1;" vertex="1" parent="1">
          <mxGeometry x="380" y="310" width="110" height="60" as="geometry" />
        </mxCell>
        <mxCell id="TeEcFhffYw2u4824Z0s_-4" value="" style="endArrow=none;html=1;rounded=0;exitX=1;exitY=0.5;exitDx=0;exitDy=0;entryX=0;entryY=0.5;entryDx=0;entryDy=0;startArrow=ERmandOne;startFill=0;" edge="1" parent="1" source="TeEcFhffYw2u4824Z0s_-1" target="TeEcFhffYw2u4824Z0s_-3">
          <mxGeometry width="50" height="50" relative="1" as="geometry">
            <mxPoint x="400" y="410" as="sourcePoint" />
            <mxPoint x="450" y="360" as="targetPoint" />
          </mxGeometry>
        </mxCell>
        <mxCell id="TeEcFhffYw2u4824Z0s_-5" value="" style="endArrow=ERoneToMany;html=1;rounded=0;entryX=0;entryY=0.5;entryDx=0;entryDy=0;exitX=1;exitY=0.5;exitDx=0;exitDy=0;endFill=0;" edge="1" parent="1" source="TeEcFhffYw2u4824Z0s_-3" target="TeEcFhffYw2u4824Z0s_-2">
          <mxGeometry width="50" height="50" relative="1" as="geometry">
            <mxPoint x="400" y="410" as="sourcePoint" />
            <mxPoint x="450" y="360" as="targetPoint" />
          </mxGeometry>
        </mxCell>
        <mxCell id="TeEcFhffYw2u4824Z0s_-6" value="&lt;font style=&quot;font-size: 18px;&quot;&gt;製造商資訊&lt;/font&gt;" style="ellipse;whiteSpace=wrap;html=1;" vertex="1" parent="1">
          <mxGeometry x="140" y="430" width="120" height="80" as="geometry" />
        </mxCell>
        <mxCell id="TeEcFhffYw2u4824Z0s_-7" value="&lt;font style=&quot;font-size: 18px;&quot;&gt;&lt;u&gt;產品編號&lt;/u&gt;&lt;/font&gt;" style="ellipse;whiteSpace=wrap;html=1;" vertex="1" parent="1">
          <mxGeometry x="520" y="150" width="120" height="80" as="geometry" />
        </mxCell>
        <mxCell id="TeEcFhffYw2u4824Z0s_-8" value="&lt;font style=&quot;font-size: 18px;&quot;&gt;&lt;u&gt;代號&lt;/u&gt;&lt;/font&gt;" style="ellipse;whiteSpace=wrap;html=1;" vertex="1" parent="1">
          <mxGeometry x="140" y="160" width="120" height="80" as="geometry" />
        </mxCell>
        <mxCell id="TeEcFhffYw2u4824Z0s_-9" value="&lt;font style=&quot;font-size: 18px;&quot;&gt;產品資訊&lt;/font&gt;" style="ellipse;whiteSpace=wrap;html=1;" vertex="1" parent="1">
          <mxGeometry x="690" y="150" width="120" height="80" as="geometry" />
        </mxCell>
        <mxCell id="TeEcFhffYw2u4824Z0s_-10" value="" style="endArrow=none;html=1;rounded=0;entryX=0.5;entryY=1;entryDx=0;entryDy=0;exitX=0.5;exitY=0;exitDx=0;exitDy=0;" edge="1" parent="1" source="TeEcFhffYw2u4824Z0s_-1" target="TeEcFhffYw2u4824Z0s_-8">
          <mxGeometry width="50" height="50" relative="1" as="geometry">
            <mxPoint x="430" y="420" as="sourcePoint" />
            <mxPoint x="480" y="370" as="targetPoint" />
          </mxGeometry>
        </mxCell>
        <mxCell id="TeEcFhffYw2u4824Z0s_-11" value="" style="endArrow=none;html=1;rounded=0;entryX=0.5;entryY=1;entryDx=0;entryDy=0;exitX=0.75;exitY=0;exitDx=0;exitDy=0;" edge="1" parent="1" source="TeEcFhffYw2u4824Z0s_-2" target="TeEcFhffYw2u4824Z0s_-9">
          <mxGeometry width="50" height="50" relative="1" as="geometry">
            <mxPoint x="430" y="420" as="sourcePoint" />
            <mxPoint x="480" y="370" as="targetPoint" />
          </mxGeometry>
        </mxCell>
        <mxCell id="TeEcFhffYw2u4824Z0s_-12" value="" style="endArrow=none;html=1;rounded=0;entryX=0.5;entryY=1;entryDx=0;entryDy=0;" edge="1" parent="1" source="TeEcFhffYw2u4824Z0s_-2" target="TeEcFhffYw2u4824Z0s_-7">
          <mxGeometry width="50" height="50" relative="1" as="geometry">
            <mxPoint x="430" y="420" as="sourcePoint" />
            <mxPoint x="480" y="370" as="targetPoint" />
          </mxGeometry>
        </mxCell>
        <mxCell id="TeEcFhffYw2u4824Z0s_-13" value="" style="endArrow=none;html=1;rounded=0;entryX=0.5;entryY=1;entryDx=0;entryDy=0;" edge="1" parent="1" source="TeEcFhffYw2u4824Z0s_-6" target="TeEcFhffYw2u4824Z0s_-1">
          <mxGeometry width="50" height="50" relative="1" as="geometry">
            <mxPoint x="430" y="420" as="sourcePoint" />
            <mxPoint x="480" y="370" as="targetPoint" />
          </mxGeometry>
        </mxCell>
        <mxCell id="TeEcFhffYw2u4824Z0s_-14" value="&lt;font style=&quot;font-size: 18px;&quot;&gt;員工&lt;/font&gt;" style="rounded=0;whiteSpace=wrap;html=1;" vertex="1" parent="1">
          <mxGeometry x="610" y="610" width="120" height="60" as="geometry" />
        </mxCell>
        <mxCell id="TeEcFhffYw2u4824Z0s_-15" value="&lt;font style=&quot;font-size: 18px;&quot;&gt;銷售&lt;/font&gt;" style="rhombus;whiteSpace=wrap;html=1;" vertex="1" parent="1">
          <mxGeometry x="615" y="460" width="110" height="60" as="geometry" />
        </mxCell>
        <mxCell id="TeEcFhffYw2u4824Z0s_-16" value="" style="endArrow=ERoneToMany;html=1;rounded=0;entryX=0.5;entryY=1;entryDx=0;entryDy=0;exitX=0.5;exitY=0;exitDx=0;exitDy=0;endFill=0;" edge="1" parent="1" source="TeEcFhffYw2u4824Z0s_-15" target="TeEcFhffYw2u4824Z0s_-2">
          <mxGeometry width="50" height="50" relative="1" as="geometry">
            <mxPoint x="450" y="500" as="sourcePoint" />
            <mxPoint x="500" y="450" as="targetPoint" />
          </mxGeometry>
        </mxCell>
        <mxCell id="TeEcFhffYw2u4824Z0s_-17" value="" style="endArrow=ERzeroToMany;html=1;rounded=0;exitX=0.5;exitY=1;exitDx=0;exitDy=0;endFill=0;" edge="1" parent="1" source="TeEcFhffYw2u4824Z0s_-15" target="TeEcFhffYw2u4824Z0s_-14">
          <mxGeometry width="50" height="50" relative="1" as="geometry">
            <mxPoint x="450" y="500" as="sourcePoint" />
            <mxPoint x="620" y="540" as="targetPoint" />
          </mxGeometry>
        </mxCell>
        <mxCell id="TeEcFhffYw2u4824Z0s_-18" value="" style="endArrow=none;html=1;rounded=0;entryX=0.25;entryY=1;entryDx=0;entryDy=0;exitX=0.5;exitY=0;exitDx=0;exitDy=0;" edge="1" parent="1" source="TeEcFhffYw2u4824Z0s_-19" target="TeEcFhffYw2u4824Z0s_-14">
          <mxGeometry width="50" height="50" relative="1" as="geometry">
            <mxPoint x="450" y="500" as="sourcePoint" />
            <mxPoint x="500" y="450" as="targetPoint" />
          </mxGeometry>
        </mxCell>
        <mxCell id="TeEcFhffYw2u4824Z0s_-19" value="&lt;font style=&quot;font-size: 18px;&quot;&gt;&lt;u&gt;員工編號&lt;/u&gt;&lt;/font&gt;" style="ellipse;whiteSpace=wrap;html=1;" vertex="1" parent="1">
          <mxGeometry x="520" y="730" width="120" height="80" as="geometry" />
        </mxCell>
        <mxCell id="TeEcFhffYw2u4824Z0s_-20" value="&lt;font style=&quot;font-size: 18px;&quot;&gt;員工資訊&lt;/font&gt;" style="ellipse;whiteSpace=wrap;html=1;" vertex="1" parent="1">
          <mxGeometry x="690" y="730" width="120" height="80" as="geometry" />
        </mxCell>
        <mxCell id="TeEcFhffYw2u4824Z0s_-21" value="" style="endArrow=none;html=1;rounded=0;entryX=0.75;entryY=1;entryDx=0;entryDy=0;exitX=0.5;exitY=0;exitDx=0;exitDy=0;" edge="1" parent="1" source="TeEcFhffYw2u4824Z0s_-20" target="TeEcFhffYw2u4824Z0s_-14">
          <mxGeometry width="50" height="50" relative="1" as="geometry">
            <mxPoint x="450" y="500" as="sourcePoint" />
            <mxPoint x="500" y="450" as="targetPoint" />
          </mxGeometry>
        </mxCell>
      </root>
    </mxGraphModel>
  </diagram>
</mxfile>
